<svg width="198" height="136" viewBox="0 0 198 136" fill="none" xmlns="http://www.w3.org/2000/svg">
    <rect x="63" width="72" height="72" rx="8" fill="#4B7FD6"/>
    <path fill-rule="evenodd" clip-rule="evenodd" d="M100.097 18C102.291 18 104.263 18.2486 106.011 18.7457C107.76 19.2429 109.251 19.9971 110.486 21.0086C111.72 22.02 112.671 23.28 113.34 24.7886C114.009 26.2972 114.343 28.0457 114.343 30.0343C114.343 32.0572 114.009 33.8228 113.34 35.3314C112.671 36.84 111.72 38.0914 110.486 39.0857C109.251 40.08 107.76 40.8343 106.011 41.3486C104.263 41.8629 102.291 42.12 100.097 42.12H93.5143V52.6114C93.5143 52.9886 93.3771 53.3143 93.1029 53.5886C92.8286 53.8629 92.5029 54 92.1257 54H85.3886C85.0114 54 84.6857 53.8629 84.4114 53.5886C84.1371 53.3143 84 52.9886 84 52.6114V19.3886C84 19.0114 84.1371 18.6857 84.4114 18.4114C84.6857 18.1371 85.0114 18 85.3886 18H100.097ZM93.5143 34.0971H99.84C101.28 34.0971 102.471 33.78 103.414 33.1457C104.357 32.5114 104.829 31.4743 104.829 30.0343C104.829 28.5943 104.357 27.5571 103.414 26.9229C102.471 26.2886 101.28 25.9714 99.84 25.9714H93.5143V34.0971Z" fill="#FEFEFE"/>
    <path d="M14.4227 97.96C16.1827 97.96 17.7293 98.32 19.0627 99.04C20.396 99.76 21.4227 100.787 22.1427 102.12C22.8893 103.427 23.2627 104.933 23.2627 106.64C23.2627 108.32 22.876 109.8 22.1027 111.08C21.356 112.36 20.2893 113.36 18.9027 114.08C17.5427 114.773 15.9693 115.12 14.1827 115.12H8.50265C8.36932 115.12 8.30265 115.187 8.30265 115.32V125.52C8.30265 125.653 8.24932 125.773 8.14265 125.88C8.06265 125.96 7.95599 126 7.82265 126H3.14265C3.00932 126 2.88932 125.96 2.78265 125.88C2.70265 125.773 2.66265 125.653 2.66265 125.52V98.44C2.66265 98.3067 2.70265 98.2 2.78265 98.12C2.88932 98.0133 3.00932 97.96 3.14265 97.96H14.4227ZM13.5827 110.6C14.8093 110.6 15.796 110.253 16.5427 109.56C17.2893 108.84 17.6627 107.907 17.6627 106.76C17.6627 105.587 17.2893 104.64 16.5427 103.92C15.796 103.2 14.8093 102.84 13.5827 102.84H8.50265C8.36932 102.84 8.30265 102.907 8.30265 103.04V110.4C8.30265 110.533 8.36932 110.6 8.50265 110.6H13.5827ZM37.0098 105.16C37.9698 105.16 38.7298 105.347 39.2898 105.72C39.5032 105.827 39.5832 106.027 39.5298 106.32L38.6898 110.88C38.6632 111.2 38.4765 111.293 38.1298 111.16C37.7298 111.027 37.2632 110.96 36.7298 110.96C36.5165 110.96 36.2232 110.987 35.8498 111.04C34.8898 111.12 34.0765 111.48 33.4098 112.12C32.7432 112.733 32.4098 113.56 32.4098 114.6V125.52C32.4098 125.653 32.3565 125.773 32.2498 125.88C32.1698 125.96 32.0632 126 31.9298 126H27.2498C27.1165 126 26.9965 125.96 26.8898 125.88C26.8098 125.773 26.7698 125.653 26.7698 125.52V105.92C26.7698 105.787 26.8098 105.68 26.8898 105.6C26.9965 105.493 27.1165 105.44 27.2498 105.44H31.9298C32.0632 105.44 32.1698 105.493 32.2498 105.6C32.3565 105.68 32.4098 105.787 32.4098 105.92V107.44C32.4098 107.52 32.4365 107.573 32.4898 107.6C32.5432 107.627 32.5832 107.613 32.6098 107.56C33.7032 105.96 35.1698 105.16 37.0098 105.16ZM51.0545 126.32C48.8145 126.32 46.8945 125.733 45.2945 124.56C43.6945 123.387 42.6012 121.787 42.0145 119.76C41.6412 118.507 41.4545 117.147 41.4545 115.68C41.4545 114.107 41.6412 112.693 42.0145 111.44C42.6279 109.467 43.7345 107.92 45.3345 106.8C46.9345 105.68 48.8545 105.12 51.0945 105.12C53.2812 105.12 55.1479 105.68 56.6945 106.8C58.2412 107.893 59.3345 109.427 59.9745 111.4C60.4012 112.733 60.6145 114.133 60.6145 115.6C60.6145 117.04 60.4279 118.387 60.0545 119.64C59.4679 121.72 58.3745 123.36 56.7745 124.56C55.2012 125.733 53.2945 126.32 51.0545 126.32ZM51.0545 121.48C51.9345 121.48 52.6812 121.213 53.2945 120.68C53.9079 120.147 54.3479 119.413 54.6145 118.48C54.8279 117.627 54.9345 116.693 54.9345 115.68C54.9345 114.56 54.8279 113.613 54.6145 112.84C54.3212 111.933 53.8679 111.227 53.2545 110.72C52.6412 110.213 51.8945 109.96 51.0145 109.96C50.1079 109.96 49.3479 110.213 48.7345 110.72C48.1479 111.227 47.7212 111.933 47.4545 112.84C47.2412 113.48 47.1345 114.427 47.1345 115.68C47.1345 116.88 47.2279 117.813 47.4145 118.48C47.6812 119.413 48.1212 120.147 48.7345 120.68C49.3745 121.213 50.1479 121.48 51.0545 121.48ZM77.4002 98.48C77.4002 98.3467 77.4402 98.24 77.5202 98.16C77.6268 98.0533 77.7468 98 77.8802 98H82.5602C82.6935 98 82.8002 98.0533 82.8802 98.16C82.9868 98.24 83.0402 98.3467 83.0402 98.48V125.52C83.0402 125.653 82.9868 125.773 82.8802 125.88C82.8002 125.96 82.6935 126 82.5602 126H77.8802C77.7468 126 77.6268 125.96 77.5202 125.88C77.4402 125.773 77.4002 125.653 77.4002 125.52V124.2C77.4002 124.12 77.3735 124.08 77.3202 124.08C77.2668 124.053 77.2135 124.067 77.1602 124.12C76.0402 125.587 74.5068 126.32 72.5602 126.32C70.6935 126.32 69.0802 125.8 67.7202 124.76C66.3868 123.72 65.4268 122.293 64.8402 120.48C64.3868 119.093 64.1602 117.48 64.1602 115.64C64.1602 113.747 64.4002 112.093 64.8802 110.68C65.4935 108.973 66.4535 107.627 67.7602 106.64C69.0935 105.627 70.7335 105.12 72.6802 105.12C74.6002 105.12 76.0935 105.787 77.1602 107.12C77.2135 107.2 77.2668 107.227 77.3202 107.2C77.3735 107.173 77.4002 107.12 77.4002 107.04V98.48ZM76.5602 119.76C77.0935 118.773 77.3602 117.427 77.3602 115.72C77.3602 113.933 77.0668 112.533 76.4802 111.52C75.8668 110.48 74.9735 109.96 73.8002 109.96C72.5468 109.96 71.6002 110.48 70.9602 111.52C70.2935 112.56 69.9602 113.973 69.9602 115.76C69.9602 117.36 70.2402 118.693 70.8002 119.76C71.4668 120.907 72.4535 121.48 73.7602 121.48C74.9602 121.48 75.8935 120.907 76.5602 119.76ZM99.6964 105.92C99.6964 105.787 99.7364 105.68 99.8164 105.6C99.9231 105.493 100.043 105.44 100.176 105.44H104.856C104.99 105.44 105.096 105.493 105.176 105.6C105.283 105.68 105.336 105.787 105.336 105.92V125.52C105.336 125.653 105.283 125.773 105.176 125.88C105.096 125.96 104.99 126 104.856 126H100.176C100.043 126 99.9231 125.96 99.8164 125.88C99.7364 125.773 99.6964 125.653 99.6964 125.52V124.16C99.6964 124.08 99.6697 124.04 99.6164 124.04C99.5631 124.013 99.5097 124.04 99.4564 124.12C98.3897 125.56 96.7364 126.28 94.4964 126.28C92.4697 126.28 90.8031 125.667 89.4964 124.44C88.1897 123.213 87.5364 121.493 87.5364 119.28V105.92C87.5364 105.787 87.5764 105.68 87.6564 105.6C87.7631 105.493 87.8831 105.44 88.0164 105.44H92.6564C92.7897 105.44 92.8964 105.493 92.9764 105.6C93.0831 105.68 93.1364 105.787 93.1364 105.92V117.88C93.1364 118.947 93.4164 119.813 93.9764 120.48C94.5631 121.147 95.3631 121.48 96.3764 121.48C97.2831 121.48 98.0297 121.213 98.6164 120.68C99.2031 120.12 99.5631 119.4 99.6964 118.52V105.92ZM118.933 126.32C116.8 126.32 114.947 125.787 113.373 124.72C111.827 123.653 110.72 122.187 110.053 120.32C109.6 118.987 109.373 117.413 109.373 115.6C109.373 113.813 109.6 112.267 110.053 110.96C110.693 109.147 111.8 107.72 113.373 106.68C114.947 105.64 116.8 105.12 118.933 105.12C121.067 105.12 122.933 105.653 124.533 106.72C126.16 107.787 127.24 109.133 127.773 110.76C127.987 111.4 128.093 111.88 128.093 112.2V112.28C128.093 112.52 127.96 112.667 127.693 112.72L123.093 113.4H123.013C122.773 113.4 122.613 113.267 122.533 113L122.413 112.36C122.227 111.667 121.813 111.093 121.173 110.64C120.533 110.187 119.773 109.96 118.893 109.96C118.04 109.96 117.32 110.173 116.733 110.6C116.147 111.027 115.733 111.613 115.493 112.36C115.2 113.16 115.053 114.253 115.053 115.64C115.053 117.027 115.187 118.12 115.453 118.92C115.693 119.72 116.107 120.347 116.693 120.8C117.307 121.253 118.04 121.48 118.893 121.48C119.72 121.48 120.44 121.267 121.053 120.84C121.693 120.387 122.133 119.773 122.373 119C122.4 118.947 122.413 118.867 122.413 118.76C122.44 118.733 122.453 118.693 122.453 118.64C122.48 118.32 122.667 118.187 123.013 118.24L127.613 118.96C127.88 119.013 128.013 119.16 128.013 119.4C128.013 119.613 127.933 120.013 127.773 120.6C127.213 122.387 126.12 123.787 124.493 124.8C122.893 125.813 121.04 126.32 118.933 126.32ZM143.578 109.48C143.578 109.613 143.524 109.733 143.418 109.84C143.338 109.92 143.231 109.96 143.098 109.96H139.258C139.124 109.96 139.058 110.027 139.058 110.16V118.64C139.058 119.52 139.231 120.173 139.578 120.6C139.951 121.027 140.538 121.24 141.338 121.24H142.658C142.791 121.24 142.898 121.293 142.978 121.4C143.084 121.48 143.138 121.587 143.138 121.72V125.52C143.138 125.813 142.978 125.987 142.658 126.04C141.538 126.093 140.738 126.12 140.258 126.12C138.044 126.12 136.391 125.76 135.298 125.04C134.204 124.293 133.644 122.907 133.618 120.88V110.16C133.618 110.027 133.551 109.96 133.418 109.96H131.138C131.004 109.96 130.884 109.92 130.778 109.84C130.698 109.733 130.658 109.613 130.658 109.48V105.92C130.658 105.787 130.698 105.68 130.778 105.6C130.884 105.493 131.004 105.44 131.138 105.44H133.418C133.551 105.44 133.618 105.373 133.618 105.24V100.48C133.618 100.347 133.658 100.24 133.738 100.16C133.844 100.053 133.964 100 134.098 100H138.578C138.711 100 138.818 100.053 138.898 100.16C139.004 100.24 139.058 100.347 139.058 100.48V105.24C139.058 105.373 139.124 105.44 139.258 105.44H143.098C143.231 105.44 143.338 105.493 143.418 105.6C143.524 105.68 143.578 105.787 143.578 105.92V109.48ZM150.413 103.12C149.506 103.12 148.746 102.827 148.133 102.24C147.546 101.627 147.253 100.867 147.253 99.96C147.253 99.0267 147.546 98.2667 148.133 97.68C148.72 97.0933 149.48 96.8 150.413 96.8C151.346 96.8 152.106 97.0933 152.693 97.68C153.28 98.2667 153.573 99.0267 153.573 99.96C153.573 100.867 153.266 101.627 152.653 102.24C152.066 102.827 151.32 103.12 150.413 103.12ZM148.013 126C147.88 126 147.76 125.96 147.653 125.88C147.573 125.773 147.533 125.653 147.533 125.52V105.88C147.533 105.747 147.573 105.64 147.653 105.56C147.76 105.453 147.88 105.4 148.013 105.4H152.693C152.826 105.4 152.933 105.453 153.013 105.56C153.12 105.64 153.173 105.747 153.173 105.88V125.52C153.173 125.653 153.12 125.773 153.013 125.88C152.933 125.96 152.826 126 152.693 126H148.013ZM163.688 126C163.422 126 163.248 125.867 163.168 125.6L156.768 105.96C156.742 105.907 156.728 105.84 156.728 105.76C156.728 105.52 156.875 105.4 157.168 105.4H162.328C162.622 105.4 162.808 105.533 162.888 105.8L166.168 117.92C166.195 118 166.235 118.04 166.288 118.04C166.342 118.04 166.382 118 166.408 117.92L169.688 105.8C169.768 105.533 169.955 105.4 170.248 105.4L175.408 105.48C175.568 105.48 175.688 105.533 175.768 105.64C175.848 105.72 175.862 105.853 175.808 106.04L169.448 125.6C169.368 125.867 169.195 126 168.928 126H163.688ZM196.021 113.6C196.181 114.613 196.235 115.747 196.181 117C196.155 117.32 195.981 117.48 195.661 117.48H183.301C183.141 117.48 183.088 117.547 183.141 117.68C183.221 118.213 183.368 118.747 183.581 119.28C184.275 120.773 185.688 121.52 187.821 121.52C189.528 121.493 190.875 120.8 191.861 119.44C191.968 119.28 192.088 119.2 192.221 119.2C192.301 119.2 192.395 119.253 192.501 119.36L195.381 122.2C195.515 122.333 195.581 122.453 195.581 122.56C195.581 122.613 195.528 122.72 195.421 122.88C194.541 123.973 193.408 124.827 192.021 125.44C190.635 126.027 189.115 126.32 187.461 126.32C185.168 126.32 183.221 125.8 181.621 124.76C180.048 123.72 178.915 122.267 178.221 120.4C177.661 119.067 177.381 117.32 177.381 115.16C177.381 113.693 177.581 112.4 177.981 111.28C178.595 109.387 179.661 107.88 181.181 106.76C182.728 105.64 184.555 105.08 186.661 105.08C189.328 105.08 191.461 105.853 193.061 107.4C194.688 108.947 195.675 111.013 196.021 113.6ZM186.701 109.96C185.021 109.96 183.915 110.747 183.381 112.32C183.275 112.667 183.181 113.093 183.101 113.6C183.101 113.733 183.168 113.8 183.301 113.8H190.221C190.381 113.8 190.435 113.733 190.381 113.6C190.248 112.827 190.181 112.453 190.181 112.48C189.941 111.68 189.515 111.067 188.901 110.64C188.315 110.187 187.581 109.96 186.701 109.96Z" fill="white"/>
</svg>
